<svg width="296" height="352" viewBox="0 0 296 352" fill="none" xmlns="http://www.w3.org/2000/svg">
<path d="M188.683 192.752V242.283L145.79 267.047L102.896 242.283V192.752L145.79 167.988L188.683 192.752Z" stroke="white" stroke-width="3"/>
<path d="M95.0623 27.1609V76.6912L52.1687 101.456L9.27515 76.6912V27.1609L52.1687 2.39624L95.0623 27.1609Z" stroke="#324C96" stroke-width="3"/>
<path d="M143.309 109.512V159.043L100.415 183.807L57.5215 159.043V109.512L100.415 84.7477L143.309 109.512Z" stroke="#324C96" stroke-width="3"/>
<path d="M239.593 109.512V159.043L196.7 183.807L153.806 159.043V109.512L196.7 84.7477L239.593 109.512Z" stroke="#324C96" stroke-width="3"/>
<path d="M239.593 275.671V325.201L196.7 349.966L153.806 325.201V275.671L196.7 250.906L239.593 275.671Z" stroke="#324C96" stroke-width="3"/>
<path d="M287.632 192.072V241.602L244.738 266.367L201.845 241.602V192.072L244.738 167.307L287.632 192.072Z" stroke="#FB7112" stroke-width="3"/>
</svg>
