<svg width="237" height="413" viewBox="0 0 237 413" fill="none" xmlns="http://www.w3.org/2000/svg">
<path d="M152.107 153.451V192.743L118.079 212.388L84.0513 192.743V153.451L118.079 133.804L152.107 153.451Z" stroke="white" stroke-opacity="0.6" stroke-width="3"/>
<path d="M75.0518 153.451V192.743L41.0234 212.388L6.99609 192.743V153.451L41.0234 133.804L75.0518 153.451Z" stroke="#324C96" stroke-opacity="0.6" stroke-width="3"/>
<path d="M113.663 219.355V258.647L79.6343 278.293L45.607 258.647V219.355L79.6343 199.709L113.663 219.355Z" stroke="#324C96" stroke-opacity="0.6" stroke-width="3"/>
<path d="M113.663 87.546V126.838L79.6343 146.484L45.607 126.838V87.546L79.6343 67.8995L113.663 87.546Z" stroke="#324C96" stroke-opacity="0.6" stroke-width="3"/>
<path d="M75.0518 21.6412V60.9332L41.0234 80.5787L6.99609 60.9332V21.6412L41.0234 1.99475L75.0518 21.6412Z" stroke="#324C96" stroke-opacity="0.6" stroke-width="3"/>
<path d="M229.162 153.451V192.743L195.134 212.388L161.107 192.743V153.451L195.134 133.804L229.162 153.451Z" stroke="#324C96" stroke-opacity="0.6" stroke-width="3"/>
<path d="M190.718 219.355V258.647L156.69 278.293L122.662 258.647V219.355L156.69 199.709L190.718 219.355Z" stroke="#324C96" stroke-opacity="0.6" stroke-width="3"/>
<path d="M190.718 352.33V391.622L156.69 411.267L122.662 391.622V352.33L156.69 332.683L190.718 352.33Z" stroke="#324C96" stroke-opacity="0.6" stroke-width="3"/>
<path d="M229.162 285.427V324.719L195.134 344.364L161.107 324.719V285.427L195.134 265.78L229.162 285.427Z" stroke="#FB7112" stroke-opacity="0.6" stroke-width="3"/>
</svg>

