<svg width="296" height="516" viewBox="0 0 296 516" fill="none" xmlns="http://www.w3.org/2000/svg">
<path d="M190.44 191.462V240.993L147.546 265.757L104.653 240.993V191.462L147.546 166.698L190.44 191.462Z" stroke="white" stroke-width="3"/>
<path d="M94.1553 191.462V240.993L51.2617 265.757L8.36816 240.993V191.462L51.2617 166.698L94.1553 191.462Z" stroke="#324C96" stroke-width="3"/>
<path d="M142.402 273.814V323.344L99.5081 348.109L56.6146 323.344V273.814L99.5081 249.049L142.402 273.814Z" stroke="#324C96" stroke-width="3"/>
<path d="M142.402 109.111V158.641L99.5081 183.406L56.6146 158.641V109.111L99.5081 84.3463L142.402 109.111Z" stroke="#324C96" stroke-width="3"/>
<path d="M94.1553 26.7594V76.2897L51.2617 101.054L8.36816 76.2897V26.7594L51.2617 1.99475L94.1553 26.7594Z" stroke="#324C96" stroke-width="3"/>
<path d="M286.725 191.462V240.993L243.831 265.757L200.938 240.993V191.462L243.831 166.698L286.725 191.462Z" stroke="#324C96" stroke-width="3"/>
<path d="M238.686 273.814V323.344L195.793 348.109L152.899 323.344V273.814L195.793 249.049L238.686 273.814Z" stroke="#324C96" stroke-width="3"/>
<path d="M238.686 439.973V489.503L195.793 514.268L152.899 489.503V439.973L195.793 415.208L238.686 439.973Z" stroke="#324C96" stroke-width="3"/>
<path d="M286.725 356.373V405.904L243.831 430.668L200.938 405.904V356.373L243.831 331.609L286.725 356.373Z" stroke="#FB7112" stroke-width="3"/>
</svg>
